<?xml version='1.0' encoding='utf-8'?>
<svg xmlns="http://www.w3.org/2000/svg" width="1660px" height="1188px" version="1.1" viewBox="-290 469 1660 1188"> <g> <g fill="#47adbe"> <path d="m-302.93 433.61 1364.2 0.0034 141.9-0.00292 179.76 0.00299-3e-4 217.14-6e-4 386.55v30.04l-2e-4 200.24v108.33l-5e-4 316.47-528.43 0.0028-497.89-0.0023-263.31 0.0027-151.58-0.0026-244.65 3e-3z"/> </g> <g fill="#6d6d6d"> <path d="m1203.2 433.61v0.00196l179.76 0.00103-3e-4 217.14-6e-4 386.55v30.04l-2e-4 200.24v108.33l-5e-4 316.47-528.43 0.0028c14.192-24.783 31.659-50.625 44.929-75.965 3.4408-6.5698 6.9146-27.639 8.6268-36.075 3.9018-19.225 7.9685-38.414 12.306-57.538 6.9313-11.148 17.505-25.733 25.305-36.874 8.0393-11.484 16.109-22.945 23.839-34.635l-104.16 0.0163 8.026-20.475-0.8973-0.3455c-7.3841 0.5186-18.423 0.148-26.21 0.1397l-55.177-0.2467-163.41 0.1809-158.96 0.0167c-22.646 0-60.235 1.2512-81.535-0.4612l2.0028-1.449c2.178-4.7338 8.2268-13.328 11.301-17.955l21.254-31.959 28.959-43.641c5.591-8.5371 11.943-19.051 17.926-27.102 14.656-0.1318 29.312-0.1482 43.969-0.0659-0.8502-4.7334 52.038-42.168 54.73-40.982 2.6094-1.2759 3.3658-2.4455 4.371-5.2031 4.6665-12.803 631.47-828.16 631.47-828.16v2.4e-4z"/> </g> <g fill="#285372"> <path d="m1382.9 1267.6s-421.15 195.4-413.42 183.71l-104.16 0.0163 8.026-20.475 48.592-121.49c14.504-9.3855 36.302-18.672 52.321-28.765 6.322-27.32 13.928-64.032 21.526-90.415l8.8246-36.124c0.6831-3.5481 0.9137-5.9556 2.6587-9.1407 2.091-1.9621 4.5441-3.4572 6.8652-5.1405 17.188-12.469 35.182-24.083 52.099-36.904 8.0753-5.0245 20.456-14.317 28.449-19.973 21.37-15.281 95.587-45.612 110.92-45.651 12.274 7e-4 177.3 230.35 177.3 230.35z"/> </g> <g fill="#1e344d"> <path d="m1132.3 1388.8 250.66-12.876-5e-4 316.47-528.43 0.0028c14.192-24.783 31.659-50.625 44.929-75.965 3.4409-6.5698 6.8818-27.645 8.6268-36.075 3.869-19.232 7.9685-38.414 12.306-57.538 6.9313-11.148 17.633-25.645 25.305-36.874 8.1658-11.394 16.109-22.945 23.839-34.635 9.3266-10.908 19.929-29.588 28.91-41.361 3.7945-4.9805 6.7005-10.364 11.294-14.884 39.405-2.9965 82.819-4.1984 122.55-6.2648z"/> </g> <g fill="#b9b8b7"> <path d="m1205.6 1037.2c12.274 7e-4 24.786 0.12 37.043-0.0157 46.666 0.372 93.727-0.4505 140.26 0.0805v30.04c-20.612 17.086-41.052 34.364-61.335 51.838-8.0917 6.9187-22.555 20.002-30.82 25.879-93.496 0.0514-190.23 1.3041-283.48-0.1538 2.0907-1.9621 4.5438-3.4572 6.865-5.1405 17.188-12.469 35.183-24.083 52.099-36.904 8.0751-5.0245 20.456-14.317 28.448-19.973 21.37-15.281 42.822-30.451 64.348-45.509 15.286-0.2956 31.239-0.1023 46.575-0.1416z"/> <path d="m1382.9 1267.6v108.33l-250.66 12.876c-39.735 2.0664-83.149 3.2683-122.55 6.2648 3.1035-2.972 13.764-9.2538 17.945-11.896l37.372-23.661 40.146-25.504c25.461-16.161 20.802-13.345 50.666-15.436l87.643-5.9936c8.8407-0.5598 41.578-1.8933 48.658-4.0832 26.712-10.752 64.685-28.353 90.788-40.892z"/> </g> <g fill="#1e344d"> <path d="m1382.9 1067.3-2e-4 200.24c-26.103 12.539-64.076 30.14-90.788 40.892l-1.0865-0.8645c-0.9549-6.3887-0.3704-41.6-0.3704-49.651l0.0907-112.9c8.2645-5.8762 22.728-18.96 30.82-25.879 20.283-17.474 40.722-34.753 61.335-51.838z"/> </g> <g fill="#79a199"> <path d="m995.81 1190.2v0.0019c-7.5979 26.382-15.204 63.093-21.526 90.414-16.019 10.094-37.816 19.38-52.321 28.765l-48.592 121.49-0.8976-0.3455c-7.3838 0.5186-18.423 0.148-26.21 0.1397l-55.177-0.2467-163.41 0.1809-158.96 0.0167c-22.646 0-60.235 1.2512-81.535-0.4612l2.0028-1.449c2.1782-4.7338 8.2267-13.328 11.301-17.955l21.254-31.959 28.959-43.641c5.5911-8.5371 11.944-19.051 17.926-27.102 14.656-0.1318 29.312-0.1482 43.969-0.0659-0.8502-4.7334-0.046-10.15 0.1869-15.016 0.4014-8.3833 52.088-27.585 54.543-25.966 6.6145 4.3635 13.421 8.4187 20.941 10.908 11.924 3.9483 26.899 3.5401 29 17.774 0.1544 1.0461 0.27964 2.0996 0.37864 3.153l0.95486 4.0916c-0.20584 1.5151-0.5597 3.6719-0.67495 5.1372 10.158 0.0085 59.013-1.2922 64.636 1.1361l6.3877-0.9713c2.0664-4.0913 3.106-15.52 4.2642-19.676 3.7314-13.388 11.623-81.228 17.781-87.187 36.672-1.8308 78.333 1.8904 115.24-1.1937 3.7453-0.3127 22.316-8.1504 26.984-9.9431 14.142-0.6704 33.594-0.0982 48.082-0.0999l94.517 0.0711z"/> </g> <g fill="#6d6d6d"> <path d="m682.56 1309.2 6.3877-0.9713c-0.2058 6.265-3.9757 25.011-5.2272 31.992l-10.372 57.835c-1.6217 9.2364-4.297 22.713-5.1613 31.868l-208.19 0.0738c-11.389 0-62.149 1.3418-69.85-0.6831l-0.96399-0.6094c2.1782-4.7338 8.2268-13.328 11.301-17.956l21.254-31.959 28.959-43.641c5.5911-8.5374 226.24-28.378 231.86-25.95z"/> </g> <g fill="#999998"> <path d="m468.62 1308c15.229 5.7134 30.049 12.259 45.06 18.367 6.4949 2.6428 22.161 9.9204 28.17 10.727-5.4742 3.326-27.03 51.463-31.556 60.609-8.775-3.1938-22.843-9.1216-31.019-11.575-28.002 13.403-61.402 30.88-89.13 43.139l-0.96387-0.6094c2.178-4.7338 8.2268-13.328 11.301-17.956l21.254-31.959 28.959-43.641c5.591-8.5374 11.943-19.051 17.926-27.102z"/> </g> <g fill="#b9b8b7"> <path d="m588.26 1277.9c-75.083 6.674 0 0 0 0 11.923 3.9483 26.899 3.5401 29 17.774 0.1544 1.0461 0.2799 2.0996 0.37864 3.153l0.95486 4.0916c-0.20584 1.5151-0.5597 3.6719-0.67495 5.1372 10.158 0.0085 59.013-1.2922 64.636 1.1361-46.847 9.5833-93.751 18.894-140.7 27.942-6.0092-0.8066-21.675-8.0839-28.17-10.727-15.011-6.1084-29.831-12.654-45.06-18.367 14.656-0.1318 29.312-0.1482 43.969-0.0659-0.8502-4.7334-0.046-10.15 0.1869-15.016z"/> </g> <g fill="#52797b"> <path d="m995.81 1190.2c-7.5979 26.384-15.204 63.095-21.526 90.415-16.019 10.094-37.816 19.38-52.321 28.765l-48.592 121.49-0.8976-0.3455c-3.7782-1.4738-59.087-0.782-67.484-0.8232 11.023-30.88 26.844-60.815 37.71-91.646 2.461-6.9815 3.1691-34.709 3.7948-43.979 2.4696-34.602 4.7085-69.217 6.7172-103.85 14.142-0.6702 33.594-0.098 48.082-0.0997z"/> <path d="m1340.2 650.81c14.241 0.07165 28.482 0.0536 42.714-0.0553l-6e-4 386.55c-46.534-0.531-93.595 0.2915-140.26-0.0803-12.257 0.1355-24.769 0.0164-37.043 0.0157-15.336 0.0393-31.289-0.154-46.575 0.1414-21.526 15.058-42.978 30.228-64.348 45.509-7.9929 5.6562-20.373 14.948-28.449 19.973-0.1645-6.1062 2.3872-25.368 3.1362-32.232l6.4537-60.977 23.115-217.62c22.234-3.5729 44.427-7.3436 66.595-11.313 9.8783-1.756 31.124-6.0186 40.525-6.553 25.403 2.0432 58.034 7.6752 83.824 11.374l2.0743-0.11121c3.3421-2.2209 8.5531-21.159 9.9937-25.731 4.9064-11.398 10.273-28.416 14.447-40.499z"/> </g> <g fill="#79a199"> <path d="m1340.2 650.81c14.241 0.07165 28.482 0.0536 42.714-0.0553l-6e-4 386.55c-46.534-0.531-93.595 0.2915-140.26-0.0803 3.5233-21.933 9.1703-47.356 13.583-69.312l25.057-124.87c1.6875-8.4805 11.072-50.258 10.767-56.422l-2.1733-1.0762 2.0743-0.11121c3.3421-2.2209 8.5531-21.159 9.9937-25.731 4.9064-11.398 10.273-28.416 14.447-40.499z"/> </g> <g fill="#285372"> <path d="m1206.1 774.17c25.403 2.0432 58.034 7.6752 83.824 11.374l2.1733 1.0762c0.3045 6.1636-9.0798 47.941-10.767 56.422l-25.057 124.87c-4.4123 21.957-10.059 47.38-13.583 69.312-12.257 0.1355-24.769 0.0164-37.043 0.0157-0.2388-25.634-1.5306-258.98 0.4532-263.07z"/> </g> <g fill="#999998"> <path d="m733 990.62c5.8775-1.1682 24.136-10.503 30.622-13.67 18.933-9.4119 37.94-18.677 57.013-27.793 3.7128-0.85216 33.512-3.015 37.875-3.0768 11.714-0.1654 49.802-5.4374 59.524-4.0913-14.504 6.4237-29.519 13.666-44.04 19.723-4.0664 13.02-8.1909 31.175-11.838 44.914l-26.029 99.209c-5.9105-22.211-9.6805-56.087-14.043-79.478-11.08 4.2959-22.234 8.422-33.445 12.379-10.652 49.142-23.419 98.911-33.635 147.89-8.026 2.5154-38.961 11.661-44.015 14.707-6.1575 5.9583-14.043 73.8-17.781 87.187-1.1525 4.1575-2.1978 15.584-4.2642 19.676l-6.3877 0.9713c-5.6224-2.4283-54.478-1.1276-64.636-1.1361 0.1152-1.4653 0.4691-3.6221 0.6749-5.1372l-0.9548-4.0916c-0.099-1.0534-0.2224-2.1071-0.3787-3.153-2.0991-14.234-17.089-13.79-29-17.774-7.532-2.4534-14.611-6.1417-20.942-10.908 2.6096-1.2759 3.3671-2.4453 4.3712-5.2031 4.6674-12.802 8.4951-26.084 12.644-39.063 8.7752-26.926 154.14-242.53 148.67-232.08z"/> </g> <g fill="#b9b8b7"> <path d="m820.64 949.16c3.7128-0.85216 33.512-3.015 37.875-3.0768 11.714-0.1654 49.802-5.4374 59.524-4.0913-14.505 6.4237-29.519 13.666-44.04 19.723-41.233 11.988-83.552 21.476-124.99 32.87-5.3424 1.469-11.113 3.043-16.488 4.2541-0.2717-3.8669-0.98776-5.0666 0.4855-8.2153 5.8775-1.1682 24.136-10.503 30.622-13.67 18.933-9.4119 37.94-18.677 57.013-27.793z"/> </g> <g fill="#999998"> <path d="m1061.3 433.61 141.9 0.00318c-9.3512 32.96-22.292 69.619-32.836 102.66l-14.406 45.254c-2.774 8.7704-6.0007 20.085-9.4665 28.444-3.194 11.088-6.569 22.124-10.125 33.101-10.034 2.506-23.246 5.702-33.429 7.6196-8.7339 1.9412-17.476 3.8345-26.226 5.6804l-30.647 84.138c-2.4366-1.8579-80.366-20.227-90.211-22.653 1.498-3.349 2.7987-6.7344 4.025-10.189 10.059-28.282 21.567-56.193 31.223-84.603 1.1688-2.1766 8.4624-22.111 9.7051-25.715 5.3669-15.59 12.883-32.853 17.698-48.379 2.9634-5.7916 11.368-30.085 14.101-37.441 9.7465-25.904 19.312-51.877 28.696-77.916z"/> </g> <g fill="#b9b8b7"> <path d="m1132.6 545.65c7.7624 8.171 15.714 16.159 23.856 23.958-2.3872 13.096-9.9605 26.694-9.9932 40.357-3.194 11.088-6.569 22.124-10.125 33.101-10.034 2.5058-23.246 5.7018-33.429 7.6194l-1.0536-0.70493c-0.1646-0.4889-0.3292-0.9771-0.5021-1.4654 2.6176-6.5375 5.013-15.04 6.9723-21.588z"/> </g> <g fill="#79a199"> <path d="m1046.2 800.59c5.4002 0.63047 45.209-7.108 52.774-8.5521l-23.115 217.62-6.4539 60.977c-0.7488 6.8641-3.3005 26.126-3.136 32.232-16.916 12.82-34.911 24.434-52.099 36.904-2.3212 1.6833-4.7743 3.1789-6.865 5.1408-1.745 3.1848-1.9756 5.5923-2.6589 9.1404-28.408-0.18-56.824-0.2066-85.24-0.0791 17.385-80.475 37.282-161.26 54.98-241.82 13.072-2.4666 28.334-4.375 41.603-6.3535 8.3222-34.292 19.18-68.783 28.284-102.92 0.2799-1.0486 1.1198-1.6661 1.9263-2.291z"/> </g> <g fill="#999998"> <path d="m874.42 746.24c9.2114 3.1759 19.443 7.398 28.391 11.402 17.435 7.8038 36.006 14.634 53.185 22.846l-25.832 115.41c-1.5804 7.0481-8.849 41.712-10.981 45.412l-1.1443 0.6776c-9.7216-1.346-47.81 3.9259-59.524 4.0918-4.3628 0.0618-34.162 2.2246-37.875 3.0766 4.2724-11.378 10.858-39.625 14.216-52.496l25.461-97.188c4.437-17.002 8.8081-36.735 14.101-53.234z"/> </g> <g fill="#b9b8b7"> <path d="m919.39 1154c28.416-0.1275 56.832-0.1011 85.24 0.0791l-8.8246 36.124-94.517-0.0711c-14.488 0.0017-33.94-0.5708-48.081 0.0997-4.6676 1.7929-23.238 9.6291-26.984 9.9428-36.903 3.0834-78.564-0.6371-115.24 1.1942 5.054-3.0454 35.989-12.191 44.015-14.707 17.015-6.4421 38.352-12.133 55.745-18.439 5.8363-2.1167 39.578-13.468 44.13-13.751 19.221-1.1936 44.805-0.5649 64.512-0.4712z"/> <path d="m955.82 717.85c9.8451 2.4262 87.775 20.795 90.211 22.653-2.9553 7.9503-6.3553 18.154-9.5573 25.776-24.909 5.3612-55.07 9.7706-80.482 14.205-17.179-8.2115-35.75-15.042-53.185-22.846-8.9478-4.0043-19.18-8.2263-28.391-11.402 21.682-9.048 58.206-20.376 81.404-28.386z"/> <path d="m1302 759.7c-1.4406 4.5714-6.6516 23.51-9.9937 25.731l-2.0743 0.11094c-25.79-3.6987-58.42-9.3307-83.824-11.374-9.4005 0.5341-30.647 4.797-40.525 6.553-22.168 3.9698-44.361 7.7402-66.595 11.313-7.5649 1.4441-47.374 9.1826-52.774 8.5521 16.892-12.951 42.443-28.518 60.676-40.795z"/> </g> <g fill="#52797b"> <path d="m279.02 1430.3c11.48 0.5271 26.11-0.0327 37.898-0.0738l70.259-0.0991c21.3 1.7124 58.89 0.4607 81.535 0.4607l158.96-0.0162 163.41-0.1809 55.177 0.2467c7.787 0.0083 18.826 0.3786 26.21-0.1397l0.8976 0.3455-8.026 20.475 104.16-0.0163c-7.7295 11.69-15.673 23.24-23.839 34.634-7.6719 11.23-589.06 206.45-589.06 206.45l-263.31 0.0027c0-0.0027 34.958-255.75 41.104-262.13l1.2044 0.2637c28.425-1.1357 58.156 0.2635 86.749-0.3461 12.214-0.2548 24.96 0.6341 37.17-0.2631 6.6084 0.2387 12.877 0.4609 19.5 0.3867z"/> </g> <g fill="#285372"> <path d="m491.8 1521.2 8.1246 1.5149 420.44 0.0743c-4.338 19.124-8.4375 38.306-12.306 57.538-1.745 8.4304-5.1859 29.506-8.6268 36.076-13.27 25.34-30.737 51.182-44.929 75.963l-497.89 0.0031c29.93-40.812 90.813-124.87 124.23-169.31 0.75158-0.1567 1.5023-0.3049 2.2538-0.4528 3.7363-1.0706 4.6618-1.3914 8.7076-1.4078z"/> </g> <g fill="#79a199"> <path d="m483.09 1522.6c3.7363-1.0706 4.6618-1.3914 8.7076-1.4078l8.1246 1.5147c-5.3431 0.1895-11.43-0.0327-16.832-0.1069z"/> </g> <g fill="#999998"> <path d="m134.4 1430.3 1.2042 0.2637c11.892 3.178 26.381 5.8208 38.698 8.3811l58.996 12.291c-7.4399 25.307-17.675 52.08-25.922 77.362-3.9298 12.045-11.976 37.195-16.888 46.976-2.9313 5.8372-23.317 30.527-28.482 36.57 8.8837-35.145 16.625-70.71 25.587-105.9l-30.956 30.486c-3.4153 3.3753-17.506 17.001-18.995 20.047-5.8988 12.06-11.668 33.276-15.839 46.317-9.7037 29.711-19.206 59.489-28.507 89.332l-151.58 3e-3c1.0455-2.5717 2.6177-4.9016 3.9528-7.322 8.4631-15.346 17.827-30.181 26.546-45.379l35.323-61.752c5.6363-9.8552 14.539-26.411 20.763-35.08 19.263-2.4448 38.49-5.1618 57.677-8.1417 7.4424-14.728 42.274-98.076 48.42-104.46z"/> </g> <g fill="#b9b8b7"> <path d="m259.52 1429.9c6.6086 0.2387 12.877 0.4611 19.5 0.3867 11.48 0.5271 26.11-0.0327 37.898-0.0738l70.259-0.0991c21.3 1.7124 58.89 0.4607 81.535 0.4607l158.96-0.0162 163.41-0.1809 55.177 0.2467c7.787 0.0083 18.826 0.3786 26.21-0.1397l0.8976 0.3455-8.026 20.475-404.74 0.0082c-75.464 0.0166-151.91 0.6833-227.3-0.1314l-58.996-12.291c-12.316-2.5603-26.806-5.2034-38.697-8.3809 28.425-1.136 58.156 0.2635 86.749-0.3461 12.214-0.2551 24.96 0.6341 37.17-0.2634z"/> <path d="m491.8 1521.2c16.459-3.441 46.657-6.9397 63.944-9.5005l66.397-9.7967c4.5769-0.667 9.2523-1.2512 13.813-2.0004 29.758-4.8821 59.795-4.7998 89.973-5.8702l105.55-4.0753 71.995-2.6589c11.434-0.4859 31.338-2.0007 42.204-1.3833-7.6718 11.23-18.373 25.727-25.304 36.874l-420.44-0.0741z"/> </g> <g fill="#feffff"> <path d="m902.79 518.38c19.106-11.613 42.048-15.133 63.747-9.7805 25.485 6.3017 38.813 18.773 51.934 40.363-4.8155 15.526-12.331 32.789-17.698 48.379-1.2432 3.6037-8.5363 23.538-9.7053 25.715l-247.54-0.05344c10.191-26.555 31.067-34.767 58.042-29.587 7.6883-34.353 37.578-45.909 68.974-33.528 6.5939-18.051 15.393-31.151 32.252-41.508z"/> </g> <g fill="#50311c"> <path d="m677.04 872.04 0.48196-4.0689q2.3346-18.289-3.6129-29.314-5.2406-12.801-28.978-28.62-38.546-23.6-75.811-11.373-29.796 10.333-56.906 53.225-26.24 42.927-31.341 83.148l-0.46632 11.802 1.2626 10.34q1.0549 4.5801 2.9451 8.3604 5.8106 11.206 17.879 16.415 8.7048 5.0364 35.229 6.5819 21.192 0.6631 59.665-3.2477l79.653-113.25"/> </g> <g fill="#845a3b"> <path d="m533.83 910.44 6.9141-6.2556q31.273-28.148 41.699-43.898 4.4016-6.2958 7.3672-12.615l2.5268-6.3265q2.1766-7.3028 2.245-10.758 1.1592-24.297-15.982-32.512-14.788-4.8417-32.307 12.443-22.502 23.37-42.512 61.122-19.912 37.117-23.879 60.567-1.3566 14.38 6.5198 17.13 4.9338 3.2874 26.21-0.67005l21.199-38.226"/> </g> <g fill="#fcba9f"> <path d="m813.57 846.4 8.0414-2.8223q6.7842 0.51001 10.414-1.0733 3.5879-1.256 11.24-7.4418 17.206 6.7709 19.184 4.9497 1.7381-1.3848-1.9464-3.4452-2.5674-1.4006-11.287-4.3974-1.1388-0.44141-1.7899-0.91076-0.4375-0.3662-0.4336-0.6211l0.0189-1.5709q0.0203-0.4109 0.7471-0.6398 1.6897-0.2831 3.9387 0.03406 14.296 2.0807 15.466 2.0018 3.8978 0.15576 4.3163-0.56775 0.776-1.3263-3.4485-2.9619-4.6839-1.7302-16.126-4.0608 0.50515-2.3677 2.8704-2.5534 1.3512-0.21096 3.7313-0.02615 10.415 1.0376 10.083 0.85985 2.9591 0.0685 3.7468-0.7538 1.1962-1.6596-2.8586-3.3233-3.64-1.2091-11.983-1.7433 1.2217-1.2765 2.4986-1.4474l5.5776-0.2223q1.2505-0.1383 2.2495-0.6942 2.7718-2.0722 0.9197-3.9514-2.1017-1.298-6.5734-0.8689-2.6572 0.0311-14.578 1.9524-13.152 6.2262-17.786 8.993-4.9797 2.8286-11.053 7.794l-10.982 4.5384 5.8035 14.974"/> </g> <g fill="#737370"> <path d="m475.09 999.36-2.4e-4 2e-3 -3.7e-4 0.0019-2.3e-4 2e-3 -3.8e-4 0.00194-9.7029 26.13-0.30864 0.8311c-7.8868 21.243-4.3516 27.986-4.3516 27.986-3.3452 12.11-8.3686 26.333-12.288 38.664-4.2107 13.249-8.7675 28.383-14.038 41.256-3.7443 9.1446-21.106 27.9-25.479 35.227-7.5985 12.734-53.582 100.24-53.25 104.96-9.9544 3.9563 27.496 25.257 27.496 25.257 144.49-208.07 151.43-211.19 151.43-211.19 2.959-1.3311 47.945 48.958 50.186 45.892 6.2174 3.01-67.885 118.81-67.885 118.81 2.8772 1.6648 38.029 7.2381 40.657 8.5472 25.183-35.358 58.754-71.567 87.244-104.34 4.515-5.1933 8.6165-15.263 5.5531-21.998-9.9774-21.938-22.4-44.236-35.616-64.46-7.0494-10.788-18.62-21.792-24.902-32.187l0.53625-1.2466c-0.67481-3.2817 1.6172-9.155 0.46155-12.314-2.3986-6.5561-6.7118-3.78-8.5732-11.926-13.834-3.2649-26.474-6.9616-39.341-13.223-6.1783 6.4495-35.182-33.399-35.182-33.399-24.083 24.246-29.577 31.267-29.577 31.267-10.27 13.127-12.771 27.595-12.771 27.595l-2.6e-4 0.0019 2.6e-4 -0.0019 9.7038-26.136-2.4e-4 2e-3 2.4e-4 -2e-3 -2.4e-4 2e-3z"/> </g> <g> <path d="m357.79 1276.8c-0.37525-1.2304-0.9292-1.333-2.1192-2.3298-9.9544 3.9563-15.446 8.2869-24.08 14.462 2.1412 5.3076 5.608 15.479 9.6041 19.092l2.9773 0.5098c2.2441 3.49 2.8757 10.354 4.0268 14.519 3.9337 14.182 15.744 26.681 26.641 36.039 3.8293 2.2317 8.3068 5.5288 12.491 5.8128 1.9929-1.0103 1.8792-0.9741 3.195-2.8142 1.7282-10.096-7.6959-16.448-9.3732-26.928-1.7087-10.717 4.2463-25.229 1.8017-35.191-0.19391-2.7662 0.9021-6.2368 1.5746-9.0254-9.641-4.5459-17.522-8.8216-26.739-14.147z"/> <path d="m552.31 1252.7c-7.137-4.1108-19.179-13.003-25.396-16.013-2.2416 3.0657-7.8458 11.369-10.76 12.795-6.98 3.0249-9.2658 23.994-10.373 31.43 1.7705 0.3486 6.5025 1.1594 7.9555 1.7129 4.404 0.8893 14.272 3.2673 18.287 2.8701 0.27745-0.4876 1.2144-2.1726 1.5381-2.3218 2.5383-1.1931 18.037 6.637 20.595 7.5112 17.996 6.1678 31.123 5.9651 49.393 4.4567l1.0941-2.4378c-0.40332-11.712-21.486-10.441-29.118-16.002-6.263-4.573-12.519-13.421-17.401-19.616-2.3147-2.3613-2.9453-2.708-5.8147-4.3867z"/> </g> <g fill="#2b4e73"> <path d="m610.44 813.49-3.4e-4 0.00193-2.6e-4 2e-3 -3.5e-4 0.00205-1.7796 0.43982c-3.8956 1.253-7.2638 3.0184-10.944 4.811-11.596-2.0731-36.747-6.3493-48.418-6.0016-9.0493 5.8802-12.762 14.394-20.568 19.334-8.6466 5.4724-20.335 9.6326-29.489 14.717-20.759 11.532-35.161 17.341-47.785 38.291-13.073 21.695-26.171 43.665-39.557 65.157-1.6068 2.5798 2.3488 4.1404 3.9948 4.7888l-1.9051 4.9817c7.7914 2.5564 15.804 7.4128 24.228 10.496l3.4067-2.0105c4.383-4.1863 8.6024-17.075 12.551-22.264 5.9035-7.7578 21.321-34.708 27.74-39.781 10.617-8.3913 32.882-17.226 45.428-23.394-2.2727 7.7893-8.7672 35.021-12.175 40.041-6.5574 9.6618-17.417 44.048-27.099 60.938-4.1943 7.316-13.162 7.2982-13.162 7.2982 18.359 21.715 104.28 32.445 109.31 32.406-4.9219-2.1275 6.8606-14.373 6.8606-14.373 7.0151-7.2902 27.966-35.288 31.47-42.66 12.533-26.363-2.6641-12.007 2.6507-39.95l20.649-27.217c7.724-3.3949-26.885-46.809-18.592-48.056-2.4353-8.2179-12.365-30.657-16.811-37.999l-1.4e-4 0.00193 3.4e-4 -0.00193-3.4e-4 0.00193z"/> <path d="m415.89 955.03-1.9051 4.9817c7.7914 2.5564 15.804 7.4128 24.228 10.496l3.4067-2.0105c-6.7862-2.7729-19.175-9.8664-25.73-13.468z"/> <path d="m810.94 827.95-2.5e-4 0.00196-3.5e-4 0.00207-2.6e-4 0.00183-3.4e-4 0.00195-3e-4 0.00195-3.4e-4 0.0021c-3.596 0.4818-6.5517 2.1318-9.4999 2.1588-3.5305 0.0322-15.39 4.2406-19.391 5.4237-27.031 7.9957-52.812 18.848-81.309 20.236-8.8339 0.43044-11.237 1.7952-20.365-0.20603l-0.7355-0.17227c-1.977-4.6406-4.4823-11.248-7.6578-14.983-7.4636-0.5874-14.107-2.4653-20.836-2.9682-2.1072 2.1206-4.4899 4.3202-6.4713 6.5288-16.487 18.376-14.754 24.374-14.754 24.374-2.2604 2.6991-6.2498 11.151-8.4102 13.901 2.4266 8.6137-55.615 135.77-43.02 144.48 12.135-9.342 42.242-40.734 56.539-61.893 14.297-21.159 40.658-65.476 40.658-65.476 38.264-4.1185 73.119-12.866 108.02-28.453 8.8701-3.9613 19.366-6.9734 27.8-11.642 0.3862-1.9542-0.48145-2.9438-1.3851-5.0719 2.5671-1.1798 4.2114-1.8845 6.6207-3.4312 1.2733-2.8392 0.7103-2.6872-0.0054-6.1496-2.4365-3.781-4.7192-12.185-5.7966-16.672l-2.5e-4 0.00196 2.5e-4 -0.00196-2.5e-4 0.00196 2.5e-4 -0.00196-2.5e-4 0.00196 2.5e-4 -0.00196z"/> <path d="m810.94 827.95c-3.5978 0.49366-6.5772 1.7964-9.5017 2.1707 2.451 8.3144 5.009 16.196 8.6831 24.082 2.567-1.1798 4.2113-1.8845 6.6206-3.4312 1.2733-2.8392 0.7103-2.6872-0.0054-6.1496-2.4362-3.781-4.719-12.185-5.7962-16.672z"/> </g> <g fill="#fcba9f"> <path d="m438.21 970.51c-8.4244-3.083-16.437-7.9397-24.228-10.496-18.628 26.354-14.106 24.742 7.1125 45.301 4.3275-4.5176 6.606-7.8674 10.18-12.927 0.12996 3.4145 0.32532 8.3135 2.764 10.962 6.3593-1.731 5.8262-26.791 4.1721-32.84z"/> </g> <g fill="#a48566"> <path d="m667.86 828.44v7.4e-4l-0.0444 0.31298v-0.00109c-6.2185 43.871-12.573 89.293-39.406 114.96-24.39 23.329-65.134 29.96-90.547 25.954-2.6705-0.42115-5.2165-0.96755-7.5542-1.6277-25.717-7.261-27.089-28.226-28.461-46.657-0.11974-1.605 1.0844-3.0027 2.6891-3.1222 1.6049-0.11974 3.0028 1.0844 3.1223 2.689 1.4142 18.987 2.8294 35.438 24.234 41.482 2.0907 0.59057 4.4032 1.0891 6.8782 1.4795 24.162 3.8093 62.888-2.6728 85.612-24.408 25.058-23.97 31.34-66.947 37.665-111.57l-1.3e-4 -7e-4 0.04445-0.31275c0.22585-1.5926 1.7004-2.701 3.2937-2.4752 1.5934 0.22597 2.7018 1.7005 2.476 3.2937z"/> <path d="m332.91 611v1e-4h1.2e-4 -1.2e-4v-1e-4 1e-4h1.2e-4q-1.2e-4 0-1.2e-4 -1e-4"/> <path d="m332.91 611v1e-4h1.2e-4 -1.2e-4v-1e-4 1e-4h1.2e-4q-1.2e-4 0-1.2e-4 -1e-4"/> </g> <g fill="#50311c"> <path d="m670.58 820.56c-0.56276-0.15235-1.1587-0.21975-1.7724-0.18799-0.2292 0.01184-0.4543 0.03714-0.67515 0.07508l-6.1e-4 0.00196c-0.7854 0.13354-1.5128 0.42943-2.1485 0.8497l0.0096 0.00466c-1.6264 1.0641-2.6517 2.9359-2.5447 5.0112 0.20226 3.9131 0.40259 7.8068 0.59036 11.66l-5e-4 2e-3c-0.00233 0.00926-0.00526 0.02036-0.0082 0.0312 0.0106 0.0077 0.0109 0.0127 0.0111 0.01736 0.00685 0.00208 0.0137 0.00404 0.0205 0.00598l-0.0107-7.4e-4c0.0118 0.4403 0.0333 0.8849 0.0547 1.329 0.0228 0.47314 0.0454 0.9452 0.0675 1.417l-5e-4 0.00194c-0.00245 0.00926-0.00526 0.02036-0.0082 0.03126 0.8008 16.756 1.2975 32.64 0.5801 45.89l1.9161-2.1802c-0.0024 0.0077-0.0045 0.01516-0.00693 0.0226l-0.01087-1e-3 -1.9097 2.1715c-0.06677 1.4192-0.15723 2.8057-0.26283 4.1602l-5e-4 0.00207c-4e-3 0.0094-0.0084 0.02073-0.01316 0.03247-0.29894 3.9564-0.73694 7.6347-1.3309 10.983-1.3966 7.8725-3.6584 13.88-6.4631 18.939 9.0212-11.741 15.921-20.918 15.921-20.918 0.76577 7.5e-4 1.5302-2e-4 2.2934-0.0034 2.7152-19.728 1.2542-47.425-0.12658-74.176-0.12952-2.5072-1.8722-4.5489-4.1704-5.1714zm1.8456 8.1349-0.0426 0.16686c0 2.5e-4 0 5e-4 -1.4e-4 7.4e-4l-6e-4 0.00196 0.04334-0.16956zm-7.1466 7.8775c2.7e-4 0.0111 8.7e-4 0.0221 0.00122 0.03294l-0.02015-0.00344c0.0032-0.01194 0.0059-0.0221 0.00843-0.0322zm4.3617 3.0321c-4.6e-4 0.0012-9.5e-4 0.0027-0.0013 0.00414-0.09975-0.02574-0.1919-0.05054-0.2825-0.07508-0.0151-0.00426-0.03026-0.00816-0.0453-0.0122-0.0477-0.01306-0.0952-0.02576-0.14316-0.03856l-4.9e-4 0.00193c0.15368 0.03917 0.30715 0.08033 0.46095 0.12097 3.5e-4 -0.0012 7e-4 -0.0027 0.0011-0.00414zm-4.2568 0.2402-6e-4 2e-3c4.7e-4 -0.00174 4.7e-4 -0.0015 4.7e-4 -0.00125l-0.01077-7.5e-4c3e-4 -0.0022 4e-4 -0.0024 4e-4 -0.00267z"/> </g> <g fill-opacity=".078431"> <path d="m527.35 884.8-4e-4 0.00196 44.714-3.3298-50.886 125.37-45.135-9.2961q10.279-6.7378 17.263-23.961 5.032-11.172 13.968-34.447l20.076-54.342"/> </g> <g fill="#50311c"> <path d="m603.47 810.17c-1.2698 28.649-2.5283 58.865-12.071 81.003-9.6998 22.503-27.844 36.69-45.11 41.17-8.043 2.087-15.707 2.0169-22.998 0.8673-8.4408-1.3307-16.574-4.151-24.147-6.7627-2.9542-1.0185-4.5232-4.2392-3.5045-7.1936 1.0188-2.9542 4.2396-4.5232 7.1937-3.5044 7.7446 2.6707 14.934 5.1334 22.22 6.2822 6.1216 0.96524 12.174 0.97119 18.393-0.6427 13.724-3.5608 29.175-15.245 37.56-34.696 8.5411-19.815 9.8553-47.637 11.158-77.025 0.1386-3.1218 2.7815-5.5408 5.9034-5.4022 3.1217 0.1383 5.5404 2.7812 5.4019 5.9031z"/> </g> <g fill="#a48566"> <path d="m660.37 838.79-2.4e-4 0.00194-0.00122 0.00795c-6.9836 43.517-14.107 89.183-41.393 109-19.3 14.016-48.024 14.756-70.58 11.2-9.6023-1.5137-18.279-3.8349-24.895-6.373-23.433-8.9908-21.53-21.176-19.422-32.208 0.3021-1.5806 1.8285-2.617 3.409-2.315 1.5806 0.30225 2.617 1.8285 2.3148 3.4092-1.8425 9.6393-3.8906 18.124 15.785 25.673 6.1803 2.3711 14.451 4.5972 23.715 6.0575 22.129 3.489 48.874 2.4579 66.248-10.159 24.872-18.062 31.899-60.563 39.063-105.21l-0.00122 0.00794 2.7e-4 -0.00194c0.2506-1.5898 1.7424-2.6751 3.3318-2.4244 1.5897 0.25049 2.6752 1.7423 2.4244 3.3319z"/> <path d="m663.57 823.37c-7.4003 51.722-14.903 105.37-44.144 130.7-22.128 19.165-56.052 21.768-80.887 17.853-8.3091-1.31-15.749-3.3682-21.561-5.8789-24.688-10.667-19.19-29.176-14.695-44.738 0.44652-1.5462 2.0619-2.4375 3.6078-1.991 1.546 0.4465 2.4374 2.0619 1.9907 3.6081-4.6508 16.103-8.2988 29.257 11.408 37.771 5.263 2.2739 12.207 4.219 20.157 5.4722 24.098 3.7993 55.922 1.0301 76.164-16.501 27.2-23.558 34.644-74.373 42.19-127.12 0.2279-1.5929 1.704-2.6996 3.297-2.4717 1.593 0.2279 2.6997 1.7041 2.4717 3.2971z"/> <path d="m667.03 833.89c2.527 18.365 5.1747 37.365-0.59302 58.127-5.786 20.827-19.959 43.21-49.386 61.131-27.664 16.846-69.537 30.123-92.778 26.459-1.1902-0.1875-2.3414-0.4209-3.4493-0.70363l2.4e-4 2.3e-4c-24.087-6.1457-22.035-33.732-20.738-56.739 0.09057-1.6067 1.4664-2.8357 3.0731-2.7452 1.6067 0.09045 2.8357 1.4663 2.7452 3.073-1.4275 25.316-2.1001 46.055 16.36 50.765h2.6e-4c0.9159 0.23387 1.8855 0.43113 2.9156 0.59373 21.223 3.346 61.626-9.1086 88.839-25.68 28.186-17.165 41.42-38.337 46.803-57.713 5.4009-19.441 2.9779-37.29 0.43457-55.772-0.21947-1.5943 0.89513-3.0646 2.4892-3.2838 1.5941-0.21935 3.0644 0.89515 3.284 2.4894z"/> </g> <g fill="#fcba9f"> <path d="m624.58 749.1-3.6e-4 0.00184-2.5e-4 0.00194-3.5e-4 0.00206c-5.1985 3.0131-9.7409 7.0562-13.306 11.898-7.7473 10.522-7.8377 20.39-5.4884 32.641 0.77381 4.036 2.6772 16.634 4.6415 19.589 4.7504 7.1486 13.212 32.898 15.647 41.116l4.467 13.344c6.1329-7.2132 6.5514-14.892 14.137-23.72 1.9339-2.2503 4.364-4.4082 6.4713-6.5288 6.7294 0.50283 10.387 5.0913 20.836 2.9679 4.113-3.9889 6.342-19.78 7.6813-26.297l7.266-4.1039c-1.9842-4.6918-4.3811-9.3081-6.4616-14.27 1.7807-11.007 2.2936-12.885-2.2545-23.575 7.1631-13.869-9.456-26.06-9.456-26.06-19.151 3.0264-26.643-7.1158-44.179 2.991v2.6e-4l-3.6e-4 0.00184 3.6e-4 -0.00184z"/> </g> <g> <path d="m624.58 749.1-3.6e-4 0.00184c-5.1991 3.0171-9.7415 7.0602-13.307 11.902-7.7473 10.522-7.8377 20.39-5.4884 32.641 0.77381 4.036 2.3872 16.848 4.6415 19.589 8.305-2.2467 10.1-3.7544 14.68-10.701-0.35695-3.0973-1.2025-10.085 0.7402-12.514 8.581-10.724 15.235 6.6274 20.206 10.309l1.2208-0.41394c1.5724-3.1217 1.652-7.813 1.9684-11.466 2.0247-2.8651 6.0929-6.719 8.6933-9.3272-0.3783-1.0649-0.7234-2.1409-1.0376-3.2267-4.3661-15.094 14.26-8.8688 21.318-3.7267 2.9586-18.697-9.456-26.06-9.456-26.06-19.151 3.0264-26.643-7.1158-44.179 2.9912l-3.6e-4 0.00184z"/> </g> <g fill="#e16726"> <path d="m597.6 767.71 83.4-14.256q1.7524 10.249 3.5048 20.498-41.7 7.13-83.4 14.26-1.7524-10.251-3.505-20.503"/> <path d="m641.09 735.58-1.6479 0.1146q-6.6017 0.5935-13.36 3.3441l-3.4537 1.7693q-3.3301 1.8693-6.1656 4.1328-2.8361 2.2637-5.1775 4.9232-11.004 13.615-10.249 29.007l82.452-11.002q-4.2477-15.693-15.961-24.268-5.6261-4.1666-13.188-6.4435-4.6854-1.2036-5.6387-1.2246-3.7789-0.54165-7.6111-0.35325z"/> </g> <g fill-opacity=".17647"> <path d="m647.38 759.68-45.436 6.9187q2.0821-5.8278 4.7527-10.271 2.8623-4.3932 7.6389-9.519l-1.3425 13.403 34.387-0.53233"/> </g> <g fill="#01adc4"> <path d="m627.25 851.49-3.6e-4 0.00195z"/> </g> <g fill="#50311c"> <path d="m661.14 840.2c-0.0046 0.02773-0.0094 0.05529-0.01413 0.08273l-0.00904 5e-4c0.00437-0.0294 0.00843-0.05723 0.01257-0.0847z"/> </g> </g> </svg>